# xmcd CD database file
#
# Track frame offsets:
#	150
#	31272
#	50582
#	84220
#	117869
#	156579
#	197625
#	234045
#	269772
#	288112
#
# Disc length: 4350 seconds
#
# Revision: 1
# Processed by: cddbd v1.5.2PL0 Copyright (c) Steve Scherf et al.
# Submitted via: CDex 1.60beta1-cs1
#
DISCID=8010fc0a
DTITLE=Mozart - MozartWorks001
DYEAR=1900
DGENRE=Classical
TTITLE0=Overture "The Magic Flute"
TTITLE1=Overture "The Marriage of Figaro"
TTITLE2=1st Mov. Molt Allegro
TTITLE3=2nd Mov. Andante
TTITLE4=4th Mov. Molto Allegro
TTITLE5=2nd Mov. Poco Adagio
TTITLE6=4th Mov. Andante From Symphony No. 39 in E Flat Major K.543
TTITLE7=2nd Mov. Andante Con Moto
TTITLE8=3rd Mov. Menuetto
TTITLE9=Symphony No. 32 in G K.318 (Overture in the Italian Style)
EXTD=
EXTT0=
EXTT1=
EXTT2=
EXTT3=
EXTT4=
EXTT5=
EXTT6=
EXTT7=
EXTT8=
EXTT9=
PLAYORDER=
